<svg width="15" height="15" viewBox="0 0 15 15" fill="none" xmlns="http://www.w3.org/2000/svg">
<path fill-rule="evenodd" clip-rule="evenodd" d="M14.7128 13.3587L10.6601 9.30605C11.3773 8.35639 11.8026 7.17398 11.8026 5.89223C11.8026 2.76077 9.26407 0.222229 6.13262 0.222229C3.00116 0.222229 0.462616 2.76077 0.462616 5.89223C0.462616 9.02368 3.00116 11.5622 6.13262 11.5622C7.41437 11.5622 8.59678 11.1369 9.54644 10.4197L13.5991 14.4724L14.7128 13.3587ZM10.2275 5.89223C10.2275 8.15384 8.39415 9.98723 6.13255 9.98723C3.87094 9.98723 2.03755 8.15384 2.03755 5.89223C2.03755 3.63063 3.87094 1.79724 6.13255 1.79724C8.39415 1.79724 10.2275 3.63063 10.2275 5.89223Z" fill="#202C43"/>
</svg>
